<svg xmlns="http://www.w3.org/2000/svg" xmlns:xlink="http://www.w3.org/1999/xlink" width="1300" height="499" version="1.1" viewBox="0 0 1300 499"><title>wave_background</title><desc>Created with Sketch.</desc><defs><radialGradient id="radialGradient-1" cx="116.708%" cy="110.133%" r="147.8%" fx="116.708%" fy="110.133%" gradientTransform="translate(1.167079,1.101332),scale(0.357923,1.000000),rotate(-160.534454),translate(-1.167079,-1.101332)"><stop offset="0%" stop-color="#0069FF"/><stop offset="2.913%" stop-color="#0269FD"/><stop offset="4.505%" stop-color="#0369FC"/><stop offset="6.005%" stop-color="#0468FB"/><stop offset="25.482%" stop-color="#1165EF"/><stop offset="100%" stop-color="#4457C0"/></radialGradient></defs><g id="Ressource" fill="none" fill-rule="evenodd" stroke="none" stroke-width="1"><g id="wave_background"><g id="Group-4"><path id="Wave" fill="#C4C4C4" d="M0,1.89326617e-29 L1300,-2.84217094e-14 C1299.84369,99.0658466 1299.84369,259.045733 1300,479.93966 C939.379367,522.288692 978.893507,439.694844 650,450.952014 C321.106493,462.209185 306.589562,511.200484 0,450.952014 C1,327.508342 1,177.191004 0,1.89326617e-29 Z" opacity=".15"/><path id="Wave" fill="url(#radialGradient-1)" d="M1.00076864,0 L925.701255,0 L1302,0 C1302,223.960943 1302,366.849893 1302,428.66685 C1221.6052,416.744841 1147.81368,399.334739 958.281774,416.744841 C768.749863,434.154944 701.824308,503.789515 426.321989,437.77475 C242.653776,393.764907 100.880036,397.003272 1.00076864,447.489845 L1.00076864,0 Z" transform="translate(651.500384, 232.828869) scale(-1, 1) translate(-651.500384, -232.828869)"/></g></g></g></svg>